<svg xmlns="http://www.w3.org/2000/svg" viewBox="0 0 100 100">
  <!-- Background -->
  <rect width="100" height="100" fill="#1e3a8a" rx="15"/>
  
  <!-- Wrench -->
  <path d="M 30 70 L 35 65 L 45 75 L 40 80 Z M 35 65 L 50 50 L 55 55 L 40 70 Z M 50 50 L 55 45 Q 60 40 65 45 Q 70 50 65 55 L 60 60 L 55 55 Z" 
        fill="#ffffff" stroke="#ffffff" stroke-width="1"/>
  
  <!-- Hammer -->
  <path d="M 70 30 L 65 35 L 55 25 L 60 20 Z M 65 35 L 50 50 L 45 45 L 60 30 Z M 45 45 L 35 35 L 40 30 L 50 40 Z" 
        fill="#e5e7eb" stroke="#e5e7eb" stroke-width="1"/>
  
  <!-- Tools crossing point highlight -->
  <circle cx="50" cy="50" r="4" fill="#fbbf24" opacity="0.8"/>
</svg>
